<svg width="1813" height="1141" viewBox="0 0 1813 1141" fill="none" xmlns="http://www.w3.org/2000/svg">
<path d="M651.21 381.626C627.506 398.992 608.853 423.039 603.546 453.248C599.904 473.964 603.594 498.851 619.626 518.816C642.711 547.566 680.171 558.341 712.672 561.773C733.19 563.896 753.902 567.442 774.648 572.385C784.63 574.775 794.467 577.471 804.159 580.473C846.652 593.426 884.704 617.646 926.569 649.703C941.972 661.533 957.625 674.095 973.182 685.7C994.308 701.398 1020.36 717.507 1040.03 721.598C1043.12 722.238 1045.97 722.73 1048.8 723.109C1052.86 723.627 1056.89 723.967 1061.45 724.472C1073.6 725.783 1089.09 728.853 1104.25 731.289C1129.35 735.197 1154.86 733.861 1171.77 720.683C1193.94 703.417 1200.04 672.729 1194.87 641.773C1191.26 620.738 1183.24 599.54 1171.32 579.497C1158.99 558.671 1142.59 539.432 1124.52 520.47C1090.07 484.327 1048.64 452.614 1004 439.24C970.074 429.044 935.027 427.908 900.591 413.06C856.77 394.17 821.099 354.924 778.979 346.979C761.644 343.716 745.93 347.041 729.418 350.748C701.988 357.024 673.109 365.556 651.21 381.626Z" stroke="#B5964D" stroke-opacity="0.32" stroke-width="3" stroke-miterlimit="10"/>
<path d="M628.853 373.761C604.285 391.685 585.41 416.957 580.269 448.263C576.76 469.754 580.806 495.336 597.073 516.174C621.165 546.918 659.839 560.388 694.313 565.907C716.171 569.403 738.115 573.954 760.058 579.542C770.648 582.238 781.106 585.144 791.433 588.259C837.25 601.882 877.196 628.137 921.297 662.294C938.736 675.806 956.732 690.1 974.591 702.952C998.503 720.142 1029.93 737.991 1051.15 738.613C1054.26 738.703 1057.32 738.608 1060.32 738.329C1064.49 737.941 1068.55 737.326 1073.38 737.024C1086.2 736.17 1103.85 738.512 1121.02 740.542C1149.25 743.874 1178.36 741.789 1196.1 725.155C1217.7 704.973 1221.51 671.827 1213.66 639.09C1208.26 616.911 1198.43 594.876 1184.74 574.289C1170.52 552.852 1152.17 533.552 1132.61 513.547C1095.37 475.542 1052.51 440.617 1005.44 424.62C970.419 412.717 933.579 409.625 897.296 394.085C851.103 374.29 812.4 335.593 769.141 330.895C750.326 328.852 734.054 334.584 716.201 339.543C686.295 347.986 653.389 355.967 628.853 373.761Z" stroke="#B5964D" stroke-opacity="0.32" stroke-width="3" stroke-miterlimit="10"/>
<path d="M561.624 350.391C534.413 369.952 514.755 398.723 510.208 433.542C507.099 457.391 512.09 485.095 529.244 508.57C556.098 545.356 598.695 566.523 639.125 578.635C664.965 586.372 690.862 593.947 716.245 601.356C728.738 604.986 741.105 608.566 753.291 612.016C809.223 627.668 854.677 660.099 905.861 700.462C929.397 719.032 954.447 738.619 979.253 755.19C1011.72 776.893 1059.09 800.057 1085.04 790.189C1088.8 788.713 1092.28 786.814 1095.42 784.522C1099.86 781.031 1104.63 777.909 1109.69 775.176C1124.71 767.861 1148.72 768.003 1171.94 769.03C1209.62 770.673 1249.87 766.846 1269.79 739.324C1290.32 711.013 1286.71 669.813 1270.76 631.737C1260 606.156 1244.71 581.563 1225.68 559.239C1205.87 536.002 1181.5 516.275 1157.57 493.377C1111.92 449.786 1064.76 405.373 1010.32 381.277C971.757 364.175 929.411 355.109 887.594 337.463C834.228 314.963 786.344 278.869 739.649 282.92C716.349 284.938 698.391 297.477 676.346 306.178C639.081 321.059 594.008 327.196 561.624 350.391Z" stroke="#B5964D" stroke-opacity="0.32" stroke-width="3" stroke-miterlimit="10"/>
<path d="M539.212 342.675C511.113 362.797 491.193 392.736 486.853 428.695C483.864 453.341 489.168 481.764 506.591 506.103C534.369 544.908 578.292 568.648 620.635 582.948C647.606 592.039 674.844 600.646 701.551 608.699C714.679 612.642 727.689 616.439 740.478 620.007C799.784 636.337 847.095 670.859 900.63 713.272C926.212 733.529 953.563 754.853 980.732 772.693C1015.96 795.894 1068.69 820.854 1096.26 807.466C1100.25 805.453 1103.87 802.95 1107.07 800.003C1111.63 795.941 1115.83 791.504 1121.72 787.987C1137.46 778.506 1163.6 777.92 1188.86 778.607C1229.68 779.693 1273.81 775.395 1294.3 744.132C1314.58 713.225 1308.38 669.18 1289.63 629.361C1277.1 602.669 1260 577.224 1239.19 554.301C1217.55 530.398 1191.32 510.541 1165.82 486.656C1117.37 441.19 1068.78 393.666 1011.87 366.826C972.045 348.043 927.969 337.002 884.274 318.593C828.534 295.181 777.599 260.192 729.736 266.923C704.961 270.403 686.425 285.109 662.967 295.063C623.305 312.016 574.198 317.635 539.212 342.675Z" stroke="#B5964D" stroke-opacity="0.32" stroke-width="3" stroke-miterlimit="10"/>
<path d="M494.32 327.216C464.473 348.446 444.035 380.735 440.087 419.021C437.362 445.231 443.276 475.089 461.288 501.156C490.92 544.035 537.488 572.889 583.822 591.566C613.084 603.367 642.972 614.039 672.331 623.395C686.743 627.971 700.984 632.172 715.053 636C781.092 653.684 832.073 692.343 890.349 738.869C919.996 762.533 952.121 787.351 983.868 807.661C1024.77 833.91 1088.19 862.429 1118.91 841.983C1123.35 838.885 1127.24 835.174 1130.5 830.929C1135.28 825.037 1139.55 818.671 1145.98 813.554C1163.14 799.757 1193.57 797.731 1222.87 797.705C1269.97 797.707 1322.01 792.516 1343.51 753.689C1363.47 717.604 1351.98 667.805 1327.95 624.517C1311.87 595.612 1291.14 568.453 1266.72 544.316C1241.2 519.178 1210.94 499.089 1182.5 473.231C1128.44 424.033 1076.95 370.319 1015.15 337.925C972.911 315.797 925.192 300.592 877.839 280.854C817.302 255.615 760.445 223.034 710.081 234.93C682.39 241.466 662.65 260.379 636.41 272.823C591.797 294.146 534.584 298.519 494.32 327.216Z" stroke="#B5964D" stroke-opacity="0.32" stroke-width="3" stroke-miterlimit="10"/>
<path d="M471.881 319.348C441.161 341.14 420.458 374.581 416.688 414.022C414.1 441.029 420.327 471.605 438.641 498.535C469.179 543.435 517.069 574.846 565.39 595.745C595.887 608.884 626.701 620.516 657.69 630.589C672.725 635.472 687.649 639.917 702.326 643.907C771.727 662.284 824.544 703.019 885.204 751.594C916.864 776.945 951.329 803.582 985.395 825.113C1029.14 852.91 1097.97 883.175 1130.18 859.208C1134.85 855.554 1138.88 851.233 1142.19 846.341C1147.06 839.526 1151.37 832.22 1158.05 826.278C1175.94 810.347 1208.5 807.56 1239.84 807.21C1290.08 806.655 1346.13 801.058 1368.06 758.407C1387.9 719.823 1373.71 667.244 1346.87 622.13C1329.04 592.093 1306.49 564.038 1280.26 539.254C1252.83 513.499 1220.6 493.279 1190.68 466.435C1133.81 415.363 1080.87 358.618 1016.62 323.398C973.224 299.655 923.678 282.408 874.459 261.956C811.519 235.756 751.763 204.494 700.113 218.924C671.071 227.021 650.627 247.988 622.908 261.685C576.016 285.163 514.751 288.952 471.881 319.348Z" stroke="#B5964D" stroke-opacity="0.32" stroke-width="3" stroke-miterlimit="10"/>
<path d="M449.511 311.59C417.915 333.927 396.939 368.551 393.364 409.147C390.924 436.935 397.435 468.246 416.047 496.023C447.533 542.976 496.737 576.912 547.024 600.015C578.66 614.519 610.745 627.172 643.07 637.89C658.74 643.087 674.29 647.748 689.57 651.792C762.346 670.845 817.002 713.673 880.026 764.28C913.723 791.351 950.541 819.727 986.966 842.51C1033.54 871.823 1107.68 903.867 1141.5 876.378C1146.4 872.176 1150.57 867.263 1153.92 861.747C1158.9 853.993 1163.24 845.731 1170.19 838.996C1188.79 820.898 1223.44 817.448 1256.84 816.693C1310.29 815.693 1370.35 809.593 1392.66 763.118C1412.42 721.987 1395.5 666.529 1365.91 619.624C1346.32 588.532 1321.96 559.665 1293.92 534.316C1264.63 507.944 1230.4 487.594 1199 459.763C1139.31 406.833 1084.94 347.042 1018.24 309.012C973.574 283.555 922.274 264.235 871.194 243.021C805.86 215.957 743.286 185.949 690.239 202.865C659.821 212.556 638.685 235.56 609.651 250.512C560.247 276.191 494.946 279.397 449.511 311.59Z" stroke="#B5964D" stroke-opacity="0.32" stroke-width="3" stroke-miterlimit="10"/>
<path d="M382.069 288.243C347.911 312.282 326.068 350.391 323.109 394.453C321.055 424.6 328.443 458.08 347.993 488.448C382.124 541.494 435.419 583.023 491.598 612.777C526.67 631.302 562.653 647.025 599.093 659.747C616.669 665.885 634.134 671.195 651.269 675.594C734.132 696.662 794.292 745.767 864.448 802.505C904.209 834.672 948.125 868.298 991.51 894.82C1046.61 928.665 1136.84 966.098 1175.29 928.024C1180.88 922.17 1185.47 915.443 1188.94 908.003C1194.23 897.494 1198.68 886.362 1206.43 877.218C1227.18 852.634 1268.29 846.917 1307.71 845.222C1370.64 842.483 1443 835.314 1466.32 777.313C1485.92 728.538 1460.75 664.461 1422.93 612.277C1398.1 577.881 1368.28 546.406 1334.76 519.186C1299.81 491.061 1259.63 470.35 1223.81 439.561C1155.69 381.024 1096.85 312.123 1022.96 265.599C974.578 235.212 917.931 209.653 861.313 186.395C788.822 156.642 717.872 130.644 660.57 154.888C626.13 169.459 602.837 198.447 569.616 217.178C512.899 249.254 435.603 250.825 382.069 288.243Z" stroke="#B5964D" stroke-opacity="0.32" stroke-width="3" stroke-miterlimit="10"/>
<path d="M359.591 280.456C324.579 305.121 302.491 344.332 299.69 389.533C297.751 420.46 305.456 454.673 325.308 485.904C360.338 541.003 414.995 585.058 473.144 617.033C509.338 636.892 546.618 653.646 584.438 667.052C602.379 673.418 620.422 678.919 638.491 683.531C724.733 705.292 786.712 756.472 859.252 815.258C901.047 849.129 947.332 884.493 993.028 912.268C1050.94 947.629 1146.54 986.84 1186.57 945.244C1192.38 938.836 1197.1 931.504 1200.61 923.426C1206.02 912.01 1210.5 899.905 1218.51 889.952C1239.98 863.217 1283.24 856.852 1324.68 854.736C1390.74 851.504 1467.27 843.914 1490.88 782.039C1510.48 730.716 1482.49 663.777 1441.95 609.834C1415.36 574.378 1383.74 542.066 1348.41 514.248C1311.55 485.426 1269.39 464.584 1232.07 432.808C1161.15 372.414 1100.86 300.468 1024.45 251.117C974.842 219.097 916.323 191.446 857.958 167.493C783.139 136.811 709.436 112.201 650.669 138.848C614.918 155.079 590.872 186.057 556.261 206.009C497.106 240.255 415.728 241.258 359.591 280.456Z" stroke="#B5964D" stroke-opacity="0.32" stroke-width="3" stroke-miterlimit="10"/>
<path d="M337.13 272.658C301.245 297.885 278.897 338.263 276.294 384.635C274.554 416.344 282.462 451.291 302.628 483.37C338.551 540.505 394.588 587.087 454.692 621.284C491.994 642.471 530.567 660.254 569.766 674.336C588.32 681.008 606.99 686.732 625.688 691.48C715.302 713.901 779.106 767.175 854.01 827.994C897.844 863.585 946.482 900.69 994.506 929.717C1055.27 966.578 1156.33 1007.68 1197.81 962.45C1203.85 955.491 1208.7 947.56 1212.26 938.85C1217.76 926.51 1222.27 913.448 1230.54 902.702C1252.74 873.799 1298.09 866.705 1341.59 864.249C1410.78 860.458 1491.52 852.481 1515.39 786.778C1534.97 732.907 1504.22 663.072 1460.93 607.385C1432.62 570.848 1399.19 537.682 1362.04 509.253C1323.28 479.766 1279.09 458.842 1240.37 426.096C1166.63 363.827 1104.85 288.849 1026.1 236.671C975.262 203.034 915.073 173.261 854.725 148.577C777.453 116.998 701.026 93.7579 640.787 122.859C603.742 140.75 578.954 173.701 542.91 194.891C481.323 231.276 395.903 231.679 337.13 272.658Z" stroke="#B5964D" stroke-opacity="0.32" stroke-width="3" stroke-miterlimit="10"/>
<path d="M292.19 257.094C254.558 283.428 231.673 326.141 229.46 374.822C227.939 408.108 236.497 444.588 257.357 478.297C294.99 539.521 353.78 591.138 417.78 629.796C457.303 653.626 498.486 673.468 540.477 688.913C560.284 696.197 580.239 702.35 600.222 707.338C696.575 731.129 763.953 788.684 843.707 853.472C891.527 892.535 944.957 933.07 997.555 964.601C1064.05 1004.48 1175.79 1049.14 1220.39 996.879C1227.21 988.957 1231.7 979.51 1235.65 969.685C1241.37 955.513 1245.97 940.587 1254.76 928.174C1278.38 894.968 1328.06 886.4 1375.53 883.263C1450.97 878.371 1540.14 869.682 1564.52 796.229C1584.08 737.246 1547.75 661.669 1499.02 602.463C1467.22 563.752 1430.15 528.866 1389.3 499.209C1346.78 468.521 1298.69 447.321 1256.92 412.585C1177.57 346.585 1112.78 265.528 1029.26 207.698C975.829 170.762 912.187 136.857 848.169 110.795C766.113 77.3744 684.279 56.9088 621.027 90.8194C581.434 112.064 555.075 148.928 516.26 172.659C449.741 213.304 356.231 212.539 292.19 257.094Z" stroke="#B5964D" stroke-opacity="0.32" stroke-width="3" stroke-miterlimit="10"/>
<path d="M269.713 249.257C231.132 276.323 208.445 319.311 206.05 369.884C204.654 403.919 213.48 441.067 234.547 475.719C273.111 538.996 333.275 593.124 399.262 634.005C439.872 659.148 482.345 680.022 525.721 696.154C546.146 703.747 566.734 710.124 587.352 715.243C687.076 739.695 756.277 799.278 838.415 866.179C888.269 906.947 944.069 949.221 999.043 982.005C1068.29 1023.38 1185.45 1069.84 1231.6 1014.05C1238.65 1005.58 1243.21 995.536 1247.26 984.998C1253.06 969.902 1257.69 953.97 1266.75 940.797C1291.1 905.439 1342.91 896.159 1392.45 892.665C1471.02 887.215 1564.45 878.171 1589.04 800.841C1608.62 739.391 1569.54 660.79 1517.93 599.905C1484.41 560.118 1445.52 524.394 1402.83 494.171C1358.41 462.882 1308.33 441.535 1265.09 405.83C1182.93 337.972 1116.63 253.867 1030.73 193.194C976.12 154.626 910.638 118.629 844.775 91.87C760.383 57.5537 675.886 38.5086 611.03 74.7908C570.167 97.7281 543.026 136.534 502.785 161.47C433.946 204.302 336.387 202.97 269.713 249.257Z" stroke="#B5964D" stroke-opacity="0.32" stroke-width="3" stroke-miterlimit="10"/>
<path d="M247.233 241.498C207.826 269.182 184.783 313.229 182.629 364.994C181.378 399.859 190.48 437.708 211.91 473.208C251.34 538.538 313.016 595.081 380.86 638.314C422.582 664.751 466.36 686.665 511.138 703.529C532.184 711.432 553.41 718.026 574.666 723.266C677.752 748.412 748.814 810.105 833.295 879.022C885.179 921.478 943.365 965.493 1000.63 999.529C1072.74 1042.44 1195.23 1090.67 1242.95 1031.37C1250.23 1022.36 1254.93 1011.68 1259.03 1000.59C1264.93 984.558 1269.58 967.669 1278.94 953.736C1303.99 916.209 1357.96 906.2 1409.5 902.365C1491.2 896.356 1588.88 886.957 1613.68 805.766C1633.31 741.671 1591.44 660.286 1537.01 597.624C1501.75 556.71 1461.03 520.091 1416.48 489.231C1370.17 457.309 1318.07 435.863 1273.4 399.172C1188.43 329.44 1120.6 242.302 1032.34 178.802C972.186 135.787 907.899 100.128 841.521 72.9584C754.691 37.7288 667.498 20.039 601.19 58.7757C559.066 83.3739 531.114 124.137 489.484 150.295C418.145 195.315 316.545 193.382 247.233 241.498Z" stroke="#B5964D" stroke-opacity="0.32" stroke-width="3" stroke-miterlimit="10"/>
<path d="M452.405 732.594C475.927 741.719 499.699 749.181 523.503 754.91C640.06 782.765 718.481 852.765 812.438 929.895C872.454 979.154 940.051 1030.18 1006.63 1069.29C1090.09 1118.23 1234.03 1173.58 1287.99 1100.22C1308.06 1072.94 1309.61 1033.73 1327.21 1004.64C1355.13 958.483 1417.65 945.543 1477.37 940.331C1571.76 932.107 1686.35 921.304 1711.95 824.622C1731.62 750.286 1678.35 657.462 1613.09 587.762C1570.9 542.539 1522.93 502.479 1471.04 469.123C1417.17 434.735 1357.18 412.8 1306.53 372.129C1210.29 294.884 1136.35 195.78 1038.6 120.825C899.511 14.1117 690.665 -91.3786 561.596 -5.33877C514.527 26.0491 483.283 74.5741 436.062 105.75C354.996 159.323 237.167 155.068 157.393 210.322C85.1996 260.269 65.2549 367.131 121.221 462.992C190.374 581.613 322.695 682.499 452.405 732.594Z" stroke="#B5964D" stroke-opacity="0.32" stroke-width="3" stroke-miterlimit="10"/>
</svg>
